<svg xmlns="http://www.w3.org/2000/svg" width="120" height="25" fill="none"><path fill="#000" fill-rule="evenodd" d="M0 19.367v-7.159h7.279v7.16H0Zm7.279-7.159V5.05h7.279v7.16H7.279ZM119.68 4.713c.045 0 .159 0 .319.022v3.838a7.095 7.095 0 0 0-.639-.045c-.182 0-.342-.023-.456-.023-1.529 0-2.556.494-3.081 1.482-.296.56-.433 1.413-.433 2.558v6.845H111.58V5.05h3.628v2.49c.593-.965 1.095-1.615 1.529-1.952.707-.584 1.643-.875 2.784-.875h.16Zm-18.939 6.059h5.909c-.068-.987-.365-1.75-.912-2.244-.548-.516-1.232-.763-2.031-.763-.89 0-1.575.27-2.054.808-.479.538-.798 1.256-.912 2.199Zm9.743-.36c0 .068.023.136.023.225.068.651.114 1.504.091 2.626h-9.949c.069 1.436.502 2.446 1.369 3.03.525.359 1.164.538 1.894.538.799 0 1.415-.224 1.917-.65.274-.247.502-.562.707-.988h3.879c-.091.853-.547 1.706-1.346 2.58-1.255 1.392-2.989 2.088-5.225 2.088-1.848 0-3.491-.584-4.906-1.773-1.095-.92-1.78-2.312-2.03-4.13a11.773 11.773 0 0 1-.092-1.593c0-.56.023-1.077.091-1.593.228-1.728.822-3.097 1.826-4.107 1.277-1.324 2.943-1.997 4.974-1.997 1.209 0 2.305.224 3.263.673.981.449 1.757 1.145 2.396 2.11.57.852.958 1.817 1.118 2.962Zm-18.414 8.955V0h3.788v19.367H92.07ZM86.503 3.636V0h3.81v19.367H86.527V3.636h-.023Zm-10.816 7.136h5.91c-.068-.987-.365-1.75-.912-2.244-.548-.516-1.233-.763-2.031-.763-.89 0-1.552.27-2.054.808-.48.538-.798 1.256-.913 2.199Zm9.744-.36c0 .068.023.158.023.225.068.651.114 1.504.09 2.626h-9.948c.046 1.436.502 2.446 1.37 3.03.524.359 1.163.538 1.893.538.776 0 1.415-.224 1.917-.65a3.48 3.48 0 0 0 .707-.988h3.88c-.092.853-.548 1.706-1.347 2.58-1.232 1.392-2.99 2.088-5.225 2.088-1.849 0-3.469-.584-4.883-1.773-.89-.74-1.506-1.773-1.826-3.097-.182-.785-.274-1.66-.274-2.626 0-.965.092-1.817.274-2.603.297-1.257.844-2.289 1.62-3.097 1.278-1.324 2.944-1.997 4.975-1.997 1.209 0 2.304.224 3.262.673.982.449 1.78 1.145 2.396 2.11.548.852.913 1.817 1.096 2.962Zm-19.19 5.005c.57-.807.844-1.862.844-3.209 0-1.1-.251-2.087-.776-2.917-.502-.853-1.346-1.28-2.487-1.28-1.37 0-2.327.651-2.83 1.93-.273.674-.41 1.55-.41 2.604 0 1.66.456 2.828 1.346 3.5.548.405 1.164.584 1.894.584 1.05 0 1.871-.404 2.419-1.212Zm2.989-8.842c.707.741 1.186 1.684 1.483 2.828.205.785.297 1.638.297 2.603 0 1.033-.092 1.953-.297 2.783-.274 1.212-.753 2.2-1.438 2.985-1.163 1.324-2.646 1.997-4.449 1.997-1.164 0-2.122-.292-2.875-.853-.41-.314-.822-.785-1.232-1.369V25h-3.765V5.049H60.582v2.11c.41-.628.844-1.122 1.3-1.459.845-.65 1.849-.965 3.012-.965 1.712 0 3.15.606 4.336 1.84Zm-17.89 8.977c.594-.785.89-1.885.89-3.321 0-1.437-.296-2.559-.89-3.322-.593-.763-1.46-1.144-2.555-1.144-1.095 0-1.962.381-2.556 1.144-.593.786-.912 1.885-.912 3.322 0 1.436.296 2.536.912 3.321.594.785 1.46 1.167 2.556 1.167 1.118 0 1.962-.382 2.556-1.167Zm3.035-8.707a7.393 7.393 0 0 1 1.506 2.94c.228.763.32 1.57.32 2.446 0 .875-.114 1.705-.32 2.468a7.767 7.767 0 0 1-1.506 2.918c-1.232 1.503-3.103 2.244-5.59 2.244-2.487 0-4.358-.74-5.59-2.244a5.412 5.412 0 0 1-.662-.943c-.799-1.301-1.187-2.783-1.187-4.443 0-1.661.388-3.142 1.187-4.444.182-.336.41-.628.661-.942 1.233-1.504 3.104-2.267 5.59-2.267 2.488 0 4.382.763 5.591 2.267Zm-12.869-2.11v3.838a7.11 7.11 0 0 0-.639-.045c-.182 0-.342-.023-.456-.023h-.092c-1.483.023-2.464.494-2.989 1.46-.296.56-.433 1.39-.433 2.557v6.845h-3.834V5.05h3.628V7.54c.594-.965 1.096-1.615 1.53-1.952.57-.471 1.254-.74 2.099-.83.228-.023.433-.045.684-.045h.183c.022 0 .136 0 .319.022Zm-11.044 1.84c.753.786 1.278 1.818 1.529 3.075.16.718.228 1.503.228 2.356 0 .92-.068 1.773-.228 2.536-.274 1.324-.753 2.401-1.483 3.232-1.164 1.324-2.647 1.997-4.45 1.997-1.163 0-2.122-.292-2.875-.853-.41-.314-.821-.785-1.232-1.369V25h-3.765V5.05h3.65v2.109c.412-.628.845-1.122 1.302-1.459.844-.65 1.848-.965 3.011-.965 1.712 0 3.127.606 4.313 1.84Zm-2.99 8.842c.571-.807.845-1.862.845-3.209 0-1.1-.25-2.087-.776-2.917-.502-.853-1.346-1.28-2.487-1.28-1.369 0-2.327.651-2.83 1.93-.273.674-.41 1.55-.41 2.604 0 1.66.456 2.828 1.346 3.5.548.405 1.164.584 1.894.584 1.073 0 1.871-.404 2.419-1.212Z" clip-rule="evenodd"/></svg>